HIERARCHY
ROOT SpineBase
{
  OFFSET 0.000000 0.000000 0.000000
  CHANNELS 6 Xposition Yposition Zposition Zrotation Xrotation Yrotation
  JOINT SpineMid
  {
    OFFSET 0.000000 32.434504 0.000000
    CHANNELS 3 Zrotation Xrotation Yrotation
    JOINT SpineShoulder
    {
      OFFSET -0.151946 24.072387 -0.843494
      CHANNELS 3 Zrotation Xrotation Yrotation
      JOINT Neck
      {
        OFFSET -0.137532 7.928484 -0.646329
        CHANNELS 3 Zrotation Xrotation Yrotation
        JOINT Head
        {
          OFFSET -0.710991 14.097995 2.935108
          CHANNELS 3 Zrotation Xrotation Yrotation
          End Site
          {
            OFFSET 0 0 0
          }
        }
      }
      JOINT ShoulderLeft
      {
        OFFSET -14.305214 -4.125263 -1.313852
        CHANNELS 3 Zrotation Xrotation Yrotation
        JOINT ElbowLeft
        {
          OFFSET -14.473252 -12.507569 8.814846
          CHANNELS 3 Zrotation Xrotation Yrotation
          JOINT WristLeft
          {
            OFFSET 5.617258 -20.357972 -5.684599
            CHANNELS 3 Zrotation Xrotation Yrotation
            JOINT HandLeft
            {
              OFFSET 1.078482 -6.680807 -0.156671
              CHANNELS 3 Zrotation Xrotation Yrotation
              JOINT HandTipLeft
              {
                OFFSET 3.281028 -7.085849 -7.094600
                CHANNELS 3 Zrotation Xrotation Yrotation
                End Site
                {
                  OFFSET 0 0 0
                }
              }
              JOINT ThumbLeft
              {
                OFFSET 5.205172 1.762193 -12.005548
                CHANNELS 3 Zrotation Xrotation Yrotation
                End Site
                {
                  OFFSET 0 0 0
                }
              }
            }
          }
        }
      }
      JOINT ShoulderRight
      {
        OFFSET 4.706262 -9.885893 -13.179320
        CHANNELS 3 Zrotation Xrotation Yrotation
        JOINT ElbowRight
        {
          OFFSET 10.279847 -22.443233 3.484230
          CHANNELS 3 Zrotation Xrotation Yrotation
          JOINT WristRight
          {
            OFFSET 14.923046 -1.369954 15.937203
            CHANNELS 3 Zrotation Xrotation Yrotation
            JOINT HandRight
            {
              OFFSET -0.109666 3.367943 8.861777
              CHANNELS 3 Zrotation Xrotation Yrotation
              JOINT HandTipRight
              {
                OFFSET 0.295850 0.618373 -0.152435
                CHANNELS 3 Zrotation Xrotation Yrotation
                End Site
                {
                  OFFSET 0 0 0
                }
              }
              JOINT ThumbRight
              {
                OFFSET -0.571085 0.344386 -2.272115
                CHANNELS 3 Zrotation Xrotation Yrotation
                End Site
                {
                  OFFSET 0 0 0
                }
              }
            }
          }
        }
      }
    }
  }
  JOINT HipLeft
  {
    OFFSET -7.349936 0.759913 -3.982453
    CHANNELS 3 Zrotation Xrotation Yrotation
    JOINT KneeLeft
    {
      OFFSET -17.960021 -26.828066 19.571700
      CHANNELS 3 Zrotation Xrotation Yrotation
      JOINT AnkleLeft
      {
        OFFSET 1.241359 -45.750766 9.877985
        CHANNELS 3 Zrotation Xrotation Yrotation
        JOINT FootLeft
        {
          OFFSET -6.628408 -4.714534 -11.772229
          CHANNELS 3 Zrotation Xrotation Yrotation
          End Site
          {
            OFFSET 0 0 0
          }
        }
      }
    }
  }
  JOINT HipRight
  {
    OFFSET 6.279870 0.358221 -3.551717
    CHANNELS 3 Zrotation Xrotation Yrotation
    JOINT KneeRight
    {
      OFFSET -9.830863 -38.351213 2.332625
      CHANNELS 3 Zrotation Xrotation Yrotation
      JOINT AnkleRight
      {
        OFFSET -6.156846 -41.630139 4.175526
        CHANNELS 3 Zrotation Xrotation Yrotation
        JOINT FootRight
        {
          OFFSET -6.784336 -4.587964 -11.710363
          CHANNELS 3 Zrotation Xrotation Yrotation
          End Site
          {
            OFFSET 0 0 0
          }
        }
      }
    }
  }
}
MOTION
Frames: 16
Frame Time: 0.033333
60.971995 88.922686 350.764176 -0.000000 0.000000 -1.810088 -0.000000 0.000000 1.810088 -0.000000 0.000000 0.000000 -0.000000 0.000000 0.000000 0.000000 0.000000 0.000000 -0.000000 0.000000 0.000000 -0.000000 0.000000 0.000000 -0.000000 0.000000 0.000000 -0.000000 0.000000 0.000000 0.000000 0.000000 0.000000 0.000000 0.000000 0.000000 -0.000000 0.000000 0.000000 -0.000000 0.000000 0.000000 -0.000000 0.000000 0.000000 -0.000000 0.000000 0.000000 0.000000 0.000000 0.000000 0.000000 0.000000 0.000000 -0.000000 0.000000 1.810088 -0.000000 0.000000 0.000000 -0.000000 0.000000 0.000000 0.000000 0.000000 0.000000 -0.000000 0.000000 1.810088 -0.000000 0.000000 0.000000 -0.000000 0.000000 0.000000 0.000000 0.000000 0.000000
60.873183 88.948339 350.631320 -0.066925 0.016912 -2.040584 0.067485 -0.014518 2.040603 -0.000000 0.000000 0.000000 -0.000000 0.000000 0.000000 0.000000 0.000000 0.000000 1.396902 1.037288 -0.233234 -1.392898 -1.042658 0.207913 0.028692 -0.936855 -0.151701 2.253352 3.456055 -1.027834 0.000000 0.000000 0.000000 0.000000 0.000000 0.000000 -0.000000 0.000000 0.000000 -0.000000 0.000000 0.000000 -0.000000 0.000000 0.000000 -0.000000 0.000000 0.000000 0.000000 0.000000 0.000000 0.000000 0.000000 0.000000 0.067485 -0.014518 2.040603 -0.000000 0.000000 0.000000 -0.000000 0.000000 0.000000 0.000000 0.000000 0.000000 0.067485 -0.014518 2.040603 -0.000000 0.000000 0.000000 -0.000000 0.000000 0.000000 0.000000 0.000000 0.000000
60.795832 88.970620 350.517522 -0.114463 0.021466 -2.208585 0.115206 -0.017039 2.208624 -0.000000 0.000000 0.000000 -0.629219 0.868102 0.179315 0.000000 0.000000 0.000000 2.421674 1.776705 -0.400879 -2.410366 -1.792021 0.325621 0.191029 -1.703663 -0.276703 3.835408 6.080270 -1.909805 0.000000 0.000000 0.000000 0.000000 0.000000 0.000000 0.575765 -0.933251 -0.332213 -0.581243 0.929849 0.341619 -0.000000 0.000000 0.000000 -0.000000 0.000000 0.000000 0.000000 0.000000 0.000000 0.000000 0.000000 0.000000 0.116775 -0.863101 2.749007 0.039013 0.845163 -0.540659 -0.000000 0.000000 0.000000 0.000000 0.000000 0.000000 0.115206 -0.017039 2.208624 -0.000000 0.000000 0.000000 -0.000000 0.000000 0.000000 0.000000 0.000000 0.000000
60.739942 88.989529 350.422783 -0.142595 0.013653 -2.314326 0.143030 -0.007884 2.314353 -0.000000 0.000000 0.000000 -0.946342 1.221911 0.268260 0.000000 0.000000 0.000000 3.074500 2.224122 -0.488212 -3.057796 -2.247043 0.368534 0.493431 -2.261385 -0.366849 4.825506 7.963919 -2.615420 0.000000 0.000000 0.000000 0.000000 0.000000 0.000000 0.786692 -1.311238 -0.467186 -0.797563 1.304655 0.485269 -0.000000 0.000000 0.000000 -0.000000 0.000000 0.000000 0.000000 0.000000 0.000000 0.000000 0.000000 0.000000 0.176314 -1.173681 3.079589 0.029397 1.165902 -0.765192 -0.000000 0.000000 0.000000 0.000000 0.000000 0.000000 0.825535 -0.434808 2.474031 -0.663460 0.455957 -0.154402 -0.000000 0.000000 0.000000 0.000000 0.000000 0.000000
60.705514 89.005065 350.347103 -0.151307 -0.006531 -2.357855 0.150910 0.012750 2.357830 -0.000000 0.000000 0.000000 -1.265290 1.523203 0.356290 0.000000 0.000000 0.000000 3.354210 2.382153 -0.485663 -3.336849 -2.406424 0.345801 0.933051 -2.581871 -0.417386 5.284659 9.170330 -3.129732 0.000000 0.000000 0.000000 0.000000 0.000000 0.000000 0.948829 -1.632539 -0.583482 -0.965789 1.622565 0.610677 -0.000000 0.000000 0.000000 -0.000000 0.000000 0.000000 0.000000 0.000000 0.000000 0.000000 0.000000 0.000000 0.234001 -1.397542 3.314242 -0.001428 1.412736 -0.955390 -0.000000 0.000000 0.000000 0.000000 0.000000 0.000000 0.944066 -0.482475 2.543515 -0.770430 0.529891 -0.178872 -0.000000 0.000000 0.000000 0.000000 0.000000 0.000000
60.692548 89.017229 350.290481 -0.140591 -0.039089 -2.339033 0.138879 0.044794 2.338930 -0.000000 0.000000 0.000000 -1.586189 1.772616 0.443079 0.000000 0.000000 0.000000 3.257357 2.248834 -0.388419 -3.053383 -1.313947 0.473851 1.289914 -3.608389 -0.612590 5.262874 9.745579 -3.447862 0.000000 0.000000 0.000000 0.000000 0.000000 0.000000 1.063607 -1.898627 -0.682308 -1.086725 1.885493 0.717816 -0.000000 0.000000 0.000000 -0.000000 0.000000 0.000000 0.000000 0.000000 0.000000 0.000000 0.000000 0.000000 0.288321 -1.531358 3.450624 -0.872990 1.946723 -1.252626 0.537070 -0.444008 1.026773 0.000000 0.000000 0.000000 0.984591 -0.483758 2.536783 -0.821529 0.565413 -0.190559 -0.305043 -0.060935 0.866288 0.000000 0.000000 0.000000
60.688982 89.053859 350.237233 -0.088195 -0.109421 -1.996951 0.084329 0.112428 1.996784 -0.000000 0.000000 0.000000 -2.153969 2.115240 0.593229 0.000000 0.000000 0.000000 2.535026 1.551010 -0.043858 -2.412238 -0.169186 0.323159 2.012728 -3.333735 -0.622346 4.221202 8.416277 -3.313027 0.000000 0.000000 0.000000 0.000000 0.000000 0.000000 1.170901 -2.181262 -0.789107 -1.201681 2.164463 0.834100 -0.000000 0.000000 0.000000 -0.000000 0.000000 0.000000 0.000000 0.000000 0.000000 0.000000 0.000000 0.000000 0.349389 -1.405742 3.166441 -1.073316 2.013405 -1.318891 0.561729 -0.578485 1.196390 0.000000 0.000000 0.000000 0.947404 -0.462299 2.205937 -0.840359 0.607470 -0.202063 -0.353454 -0.083927 1.023226 0.000000 0.000000 0.000000
60.717945 89.049000 350.227599 -0.023737 -0.198322 -1.953260 0.016964 0.199016 1.953190 -0.000000 0.000000 0.000000 -2.584860 2.341333 0.706954 0.000000 0.000000 0.000000 1.940995 0.969578 0.235685 -1.837227 0.880990 0.210065 2.665031 -4.069396 -0.757379 3.306687 8.771019 -2.965273 0.000000 0.000000 0.000000 0.000000 0.000000 0.000000 1.198962 -2.338017 -0.853629 -1.234663 2.319370 0.903091 -0.000000 0.000000 0.000000 -0.000000 0.000000 0.000000 0.000000 0.000000 0.000000 0.000000 0.000000 0.000000 0.434096 -1.212557 3.171442 -1.352778 2.025094 -1.386019 0.651524 -0.696216 1.325254 0.000000 0.000000 0.000000 0.801887 -0.292157 2.133476 -0.766120 0.520026 -0.176171 -0.383994 -0.102773 1.128697 0.000000 0.000000 0.000000
60.766833 89.035462 350.238639 0.030799 -0.264737 -1.805708 -0.039126 0.263635 1.805869 -0.000000 0.000000 0.000000 -2.825692 2.364565 0.763661 0.000000 0.000000 0.000000 1.395907 0.488922 0.419279 -1.295078 1.729720 0.149596 3.972593 -3.719056 -0.705331 1.660199 7.465799 -2.851180 0.000000 0.000000 0.000000 0.000000 0.000000 0.000000 1.221634 -2.455674 -0.901695 -1.261255 2.435570 0.954692 -0.000000 0.000000 0.000000 -0.000000 0.000000 0.000000 0.000000 0.000000 0.000000 0.000000 0.000000 0.000000 0.413024 -1.174902 3.069506 -1.683759 2.182000 -1.481108 0.926609 -0.827254 1.464153 0.000000 0.000000 0.000000 -0.039126 0.263635 1.805869 -0.000000 0.000000 0.000000 -0.408804 -0.114537 1.209061 0.000000 0.000000 0.000000
60.849946 89.034134 350.261270 0.092523 -0.304749 -1.413119 -0.100011 0.302374 1.413629 -0.000000 0.000000 0.000000 -2.883653 2.289417 0.771350 0.000000 0.000000 0.000000 0.886987 0.096867 0.517224 -0.780456 2.337744 0.121355 4.508032 -4.045659 -0.744589 0.989833 7.350100 -2.780687 0.000000 0.000000 0.000000 0.000000 0.000000 0.000000 1.181525 -2.466164 -0.913517 -1.221796 2.446472 0.965040 -0.000000 0.000000 0.000000 -0.000000 0.000000 0.000000 0.000000 0.000000 0.000000 0.000000 0.000000 0.000000 0.365580 -1.171373 2.715157 -2.114441 2.317837 -1.589836 1.337818 -0.921958 1.569662 0.000000 0.000000 0.000000 -0.100011 0.302374 1.413629 -0.000000 0.000000 0.000000 -0.413504 -0.120110 1.229295 0.000000 0.000000 0.000000
60.971156 88.869720 350.329163 0.181305 -0.334133 -2.662835 -0.196635 0.325347 2.663922 -0.000000 0.000000 0.000000 -2.763637 1.955054 0.719563 0.000000 0.000000 0.000000 -0.000000 0.000000 0.000000 0.068549 2.556745 0.680553 4.459663 -3.954524 -0.749085 0.846968 6.640899 -2.795826 0.000000 0.000000 0.000000 0.000000 0.000000 0.000000 1.019905 -2.117592 -0.787375 -1.049609 2.103032 0.825490 -0.000000 0.000000 0.000000 -0.785387 -0.616501 0.096678 0.000000 0.000000 0.000000 0.000000 0.000000 0.000000 -0.045442 -1.866500 4.151979 -2.116155 3.320694 -1.820054 1.781066 -1.211386 1.607568 0.000000 0.000000 0.000000 -0.196635 0.325347 2.663922 -0.000000 0.000000 0.000000 -0.395660 -0.119420 1.183132 0.000000 0.000000 0.000000
61.023103 88.799200 350.313752 0.159083 -0.246303 -3.033378 -0.171895 0.237538 3.034076 -0.000000 0.000000 0.000000 -2.590776 1.466729 0.645626 0.000000 0.000000 0.000000 -0.000000 0.000000 0.000000 0.086315 2.652271 0.701170 4.248186 -4.058946 -0.771116 1.357310 6.403038 -3.219838 0.000000 0.000000 0.000000 0.000000 0.000000 0.000000 0.578208 -1.499124 -0.586811 -0.593731 1.493046 0.602112 -0.000000 0.000000 0.000000 -0.000000 0.000000 0.000000 0.000000 0.000000 0.000000 0.000000 0.000000 0.000000 0.085273 -1.943531 4.587898 -2.349434 3.194631 -1.911940 2.001620 -1.046504 1.397924 0.000000 0.000000 0.000000 -0.171895 0.237538 3.034076 -0.000000 0.000000 0.000000 -0.314403 -0.094185 0.939641 0.000000 0.000000 0.000000
60.938508 89.049452 350.240223 0.038665 -0.143697 -0.774984 -0.040605 0.143161 0.775083 -0.000000 0.000000 0.000000 -2.602883 1.394704 0.643125 0.000000 0.000000 0.000000 0.575711 -0.128950 0.558405 -0.528986 2.619038 0.117484 4.259050 -3.010369 -0.648084 1.586180 5.535023 -3.451263 0.000000 0.000000 0.000000 0.000000 0.000000 0.000000 0.348905 -1.628534 -0.684382 -0.368477 1.624219 0.694564 -0.000000 0.000000 0.000000 1.136427 0.813180 -0.117739 0.000000 0.000000 0.000000 0.000000 0.000000 0.000000 0.444943 -1.294636 2.078371 -2.611397 2.161494 -1.680454 1.928046 -0.740828 1.275551 0.000000 0.000000 0.000000 -0.040605 0.143161 0.775083 -0.000000 0.000000 0.000000 -0.284471 -0.075461 0.835808 0.000000 0.000000 0.000000
60.960292 89.515108 350.166449 0.067523 -0.057536 3.248781 -0.064154 0.061270 -3.248713 -0.000000 0.000000 0.000000 -2.873654 1.222536 0.690055 0.000000 0.000000 0.000000 1.109790 0.345912 0.383649 -1.036314 2.021318 0.239534 3.941792 -2.727753 -0.600834 2.216997 5.484540 -3.766927 0.000000 0.000000 0.000000 0.000000 0.000000 0.000000 0.487577 -2.440718 -1.026605 -0.531694 2.431494 1.048275 -0.000000 0.000000 0.000000 1.762749 1.270188 -0.194662 0.000000 0.000000 0.000000 0.000000 0.000000 0.000000 1.286567 -0.260814 -2.077688 -3.484361 0.957255 -1.587250 2.141077 -0.624711 0.456283 0.000000 0.000000 0.000000 0.813662 -1.252396 -2.857721 -0.942444 1.268112 -0.371437 -0.000000 0.000000 0.000000 0.000000 0.000000 0.000000
60.627501 90.271471 350.047152 -0.302470 0.022376 8.055489 0.296350 -0.064540 -8.055263 -0.000000 0.000000 0.000000 -3.553223 1.112663 0.830229 0.000000 0.000000 0.000000 2.033461 1.392618 -0.209107 0.636988 2.307714 0.407934 1.595109 -4.152280 -0.235124 2.950580 5.945988 -4.572474 0.000000 0.000000 0.000000 0.000000 0.000000 0.000000 0.449746 -3.494675 -1.507709 -0.542485 3.481501 1.537916 -0.000000 0.000000 0.000000 2.160114 1.544848 -0.238671 0.000000 0.000000 0.000000 0.000000 0.000000 0.000000 2.700044 0.846750 -7.240762 -4.137797 -0.831052 -1.283439 1.875201 -0.333683 0.400884 0.000000 0.000000 0.000000 1.760257 -2.449980 -7.359719 -1.758614 2.177332 -0.629993 -0.000000 0.000000 0.000000 0.000000 0.000000 0.000000
60.342568 91.056981 349.791647 -0.602116 0.137730 11.650361 0.561903 -0.256474 -11.648379 -0.000000 0.000000 0.000000 -4.235303 1.236012 0.989804 0.000000 0.000000 0.000000 2.870776 2.303842 -0.731961 -0.383875 0.399159 0.709360 1.515242 -2.833040 -0.030391 3.058073 5.339404 -4.548685 0.000000 0.000000 0.000000 0.000000 0.000000 0.000000 1.117502 -5.425652 -2.233869 -1.333697 5.376733 2.349448 -0.000000 0.000000 0.000000 2.333474 1.631401 -0.241696 0.000000 0.000000 0.000000 0.000000 0.000000 0.000000 3.591851 1.552860 -11.371320 -3.941674 -2.455225 -0.709731 1.323436 0.101779 0.287305 0.000000 0.000000 0.000000 2.330912 -3.695627 -10.663844 -2.358428 2.180698 -0.729377 -0.030523 0.869130 -0.131466 0.000000 0.000000 0.000000
